<?xml version="1.0" encoding="utf-8"?>
<!-- Generator: Adobe Illustrator 21.0.2, SVG Export Plug-In . SVG Version: 6.00 Build 0)  -->
<svg version="1.1" id="Layer_1" xmlns="http://www.w3.org/2000/svg" xmlns:xlink="http://www.w3.org/1999/xlink" x="0px" y="0px"
	 viewBox="0 0 850.4 850.4" style="enable-background:new 0 0 850.4 850.4;" xml:space="preserve">
<style type="text/css">
	.st0{fill:#FFFFFF;}
</style>
<g>
	<path class="st0" d="M609.1,14.8H241.3c-124.9,0-226.5,101.6-226.5,226.5v367.8c0,124.9,101.6,226.5,226.5,226.5h367.8
		c124.9,0,226.5-101.6,226.5-226.5V241.3C835.6,116.4,734,14.8,609.1,14.8L609.1,14.8z M762.8,609.1c0,84.8-68.9,153.7-153.7,153.7
		H241.3c-84.8,0-153.7-68.9-153.7-153.7V241.3c0-84.8,68.9-153.7,153.7-153.7h367.8c84.8,0,153.7,68.9,153.7,153.7V609.1z
		 M762.8,609.1"/>
	<path class="st0" d="M425.2,213.7c-116.6,0-211.5,94.9-211.5,211.5c0,116.6,94.9,211.5,211.5,211.5c116.6,0,211.5-94.9,211.5-211.5
		C636.7,308.6,541.8,213.7,425.2,213.7L425.2,213.7z M425.2,563.9c-76.5,0-138.7-62.2-138.7-138.7c0-76.5,62.2-138.7,138.7-138.7
		s138.7,62.2,138.7,138.7C563.9,501.7,501.7,563.9,425.2,563.9L425.2,563.9z M425.2,563.9"/>
	<path class="st0" d="M645.6,152c-14,0-27.8,5.7-37.7,15.6c-10,9.9-15.7,23.7-15.7,37.8c0,14,5.7,27.8,15.7,37.8
		c9.9,9.9,23.7,15.6,37.7,15.6c14.1,0,27.8-5.7,37.8-15.6c10-10,15.6-23.8,15.6-37.8c0-14.1-5.7-27.9-15.6-37.8
		C673.4,157.6,659.7,152,645.6,152L645.6,152z M645.6,152"/>
</g>
</svg>
