<?xml version="1.0" encoding="utf-8"?>
<!-- Generator: Adobe Illustrator 21.0.2, SVG Export Plug-In . SVG Version: 6.00 Build 0)  -->
<svg version="1.1" id="Layer_1" xmlns="http://www.w3.org/2000/svg" xmlns:xlink="http://www.w3.org/1999/xlink" x="0px" y="0px"
	 viewBox="0 0 841.9 595.3" style="enable-background:new 0 0 841.9 595.3;" xml:space="preserve">
<style type="text/css">
	.st0{fill:none;stroke:#000000;stroke-width:10;stroke-miterlimit:10;}
	.st1{fill:none;stroke:#000000;stroke-width:32;stroke-miterlimit:10;}
</style>
<circle class="st0" cx="425.2" cy="297.6" r="283.5"/>
<path class="st1" d="M296.6,399.9l20-233.6c37.3-5,68.5-7.1,92-8c15.8-0.6,28.6-0.7,42.4,6.4c2.1,1.1,34,18,32,44.8
	c-1.4,19.2-19.4,30.9-22.4,32.8c-5.9,3.8-11.1,5.5-47.2,9.6c-21.2,2.4-31.8,3.6-47.2,4.8c-40.6,3.1-44.9,1.6-47.2,4.8
	c-6.1,8.7,10.9,39.6,125.6,144"/>
<path class="st1" d="M479.4,346.2c4.5,0.2,10.8,0.4,18.4,0.3c7.5-0.1,13.7-0.2,20.3-1.2c11.7-1.7,21.3-3,28.1-9.2
	c10.7-9.7,13.3-30.1,5.1-43.8c-11.4-18.9-41-20.4-59-10.1c-23.5,13.5-27.8,47.6-18,70c12,27.4,47.8,43.4,84.7,33.2"/>
</svg>
