<?xml version="1.0" encoding="utf-8"?>
<!-- Generator: Adobe Illustrator 21.0.2, SVG Export Plug-In . SVG Version: 6.00 Build 0)  -->
<svg version="1.1" id="Layer_1" xmlns="http://www.w3.org/2000/svg" xmlns:xlink="http://www.w3.org/1999/xlink" x="0px" y="0px"
	 viewBox="0 0 283.5 283.5" style="enable-background:new 0 0 283.5 283.5;" xml:space="preserve">
<g>
	<path d="M14.2,178.6v17.3H4.7v-45h13.1c6.1,0,10.6,1.1,13.6,3.3c2.9,2.2,4.4,5.6,4.4,10.1c0,2.6-0.7,5-2.2,7.1
		c-1.5,2.1-3.5,3.7-6.2,4.8c6.8,10.1,11.2,16.6,13.2,19.6H30l-10.7-17.3H14.2z M14.2,170.8h3.1c3,0,5.2-0.5,6.7-1.5
		c1.4-1,2.2-2.6,2.2-4.7c0-2.1-0.7-3.7-2.2-4.6s-3.7-1.4-6.8-1.4h-2.9V170.8z"/>
	<path d="M61.1,196.4c-5.5,0-9.9-1.5-13-4.6c-3.1-3.1-4.7-7.4-4.7-13c0-5.8,1.4-10.2,4.3-13.4c2.9-3.1,6.9-4.7,12-4.7
		c4.9,0,8.6,1.4,11.4,4.2s4.1,6.6,4.1,11.5v4.6H52.9c0.1,2.7,0.9,4.7,2.4,6.2s3.5,2.2,6.2,2.2c2.1,0,4-0.2,5.9-0.6s3.8-1.1,5.8-2.1
		v7.3c-1.6,0.8-3.4,1.4-5.3,1.8C66,196.2,63.8,196.4,61.1,196.4z M59.8,167.5c-2,0-3.5,0.6-4.7,1.9c-1.1,1.3-1.8,3.1-1.9,5.4h13.2
		c0-2.3-0.6-4.1-1.8-5.4C63.3,168.1,61.7,167.5,59.8,167.5z"/>
	<path d="M77.8,161.4h10.3l6.5,19.3c0.6,1.7,0.9,3.7,1.1,6h0.2c0.2-2.1,0.7-4.1,1.3-6l6.4-19.3h10.1l-14.6,38.8
		c-1.3,3.6-3.2,6.3-5.7,8.1c-2.5,1.8-5.4,2.7-8.7,2.7c-1.6,0-3.2-0.2-4.8-0.5V203c1.1,0.3,2.4,0.4,3.7,0.4c1.7,0,3.1-0.5,4.4-1.5
		c1.2-1,2.2-2.5,2.9-4.6l0.6-1.7L77.8,161.4z"/>
	<path d="M150.3,195.8h-9.4v-20.1c0-2.5-0.4-4.3-1.3-5.6c-0.9-1.2-2.3-1.9-4.2-1.9c-2.6,0-4.5,0.9-5.7,2.6c-1.2,1.8-1.8,4.7-1.8,8.7
		v16.2h-9.4v-34.4h7.2l1.3,4.4h0.5c1-1.7,2.5-2.9,4.3-3.8s3.9-1.3,6.3-1.3c4,0,7,1.1,9.1,3.2c2.1,2.2,3.1,5.3,3.1,9.4V195.8z"/>
	<path d="M191.2,178.6c0,5.6-1.5,10-4.4,13.1s-7.1,4.7-12.3,4.7c-3.3,0-6.2-0.7-8.7-2.2c-2.5-1.4-4.5-3.5-5.8-6.2s-2-5.9-2-9.5
		c0-5.6,1.5-10,4.4-13.1c2.9-3.1,7.1-4.7,12.4-4.7c3.3,0,6.2,0.7,8.7,2.2c2.5,1.4,4.5,3.5,5.8,6.2S191.2,175,191.2,178.6z
		 M167.4,178.6c0,3.4,0.6,6,1.7,7.7c1.1,1.7,2.9,2.6,5.5,2.6c2.5,0,4.3-0.9,5.4-2.6c1.1-1.7,1.6-4.3,1.6-7.7c0-3.4-0.6-6-1.7-7.7
		s-2.9-2.6-5.4-2.6c-2.5,0-4.3,0.8-5.4,2.5C168,172.6,167.4,175.1,167.4,178.6z"/>
	<path d="M208.4,195.8H199V148h9.4V195.8z"/>
	<path d="M229.1,196.4c-4,0-7.2-1.6-9.5-4.7c-2.3-3.1-3.5-7.5-3.5-13c0-5.6,1.2-10,3.5-13.2c2.3-3.1,5.6-4.7,9.7-4.7
		c4.3,0,7.6,1.7,9.9,5h0.3c-0.5-2.6-0.7-4.9-0.7-6.9v-11h9.4v47.9h-7.2l-1.8-4.5h-0.4C236.7,194.7,233.5,196.4,229.1,196.4z
		 M232.4,189c2.4,0,4.2-0.7,5.3-2.1c1.1-1.4,1.7-3.8,1.8-7.1v-1c0-3.7-0.6-6.3-1.7-7.9c-1.1-1.6-3-2.4-5.6-2.4
		c-2.1,0-3.7,0.9-4.9,2.7c-1.2,1.8-1.7,4.4-1.7,7.7c0,3.4,0.6,5.9,1.8,7.6C228.5,188.1,230.2,189,232.4,189z"/>
	<path d="M282.1,185.6c0,3.5-1.2,6.2-3.7,8.1c-2.5,1.8-6.1,2.8-11,2.8c-2.5,0-4.6-0.2-6.4-0.5c-1.8-0.3-3.4-0.8-5-1.5v-7.8
		c1.7,0.8,3.7,1.5,5.9,2.1c2.2,0.6,4.1,0.8,5.8,0.8c3.4,0,5.1-1,5.1-3c0-0.7-0.2-1.3-0.7-1.8c-0.5-0.5-1.2-1-2.3-1.6
		c-1.1-0.6-2.6-1.3-4.4-2c-2.6-1.1-4.6-2.1-5.8-3.1s-2.1-2-2.7-3.2c-0.6-1.2-0.8-2.7-0.8-4.5c0-3.1,1.2-5.4,3.6-7.1
		c2.4-1.7,5.7-2.5,10.1-2.5c4.1,0,8.2,0.9,12.1,2.7l-2.8,6.8c-1.7-0.7-3.3-1.3-4.8-1.8s-3-0.7-4.6-0.7c-2.8,0-4.2,0.7-4.2,2.2
		c0,0.8,0.4,1.6,1.3,2.2c0.9,0.6,2.8,1.5,5.9,2.7c2.7,1.1,4.7,2.1,5.9,3c1.3,0.9,2.2,2,2.8,3.3S282.1,183.9,282.1,185.6z"/>
</g>
<g>
	<path d="M24.9,141.7v-18.9c0-2.9-0.6-5.1-1.9-6.4c-1.2-1.3-3.2-2-5.7-2c-3.5,0-6,0.9-7.7,2.6c-1.6,1.8-2.4,4.6-2.4,8.6v16.1H4.5
		v-29.2h2.3l0.5,4h0.2c1.9-3,5.3-4.6,10.1-4.6c6.6,0,9.9,3.6,9.9,10.7v19.1H24.9z"/>
	<path d="M40.5,112.5v18.9c0,2.9,0.6,5.1,1.9,6.4c1.2,1.3,3.2,2,5.7,2c3.5,0,6-0.9,7.7-2.6c1.6-1.8,2.5-4.6,2.5-8.6v-16.1h2.6v29.2
		h-2.3l-0.5-4H58c-1.9,3-5.3,4.6-10.1,4.6c-6.6,0-10-3.6-10-10.7v-19.1H40.5z M46.6,108c1.3-1.4,2.6-2.9,3.9-4.6
		c1.3-1.7,2.2-2.9,2.6-3.8h3.8v0.5c-0.6,0.9-1.7,2.2-3.3,3.7c-1.5,1.5-3.3,3.1-5.1,4.6h-1.9V108z"/>
	<path d="M108.3,141.7v-19.1c0-2.8-0.6-4.9-1.7-6.2c-1.1-1.3-2.8-2-5.1-2c-3,0-5.2,0.8-6.6,2.5c-1.4,1.6-2.1,4.2-2.1,7.8v17.1h-2.7
		v-20c0-4.9-2.3-7.4-6.8-7.4c-3.1,0-5.3,0.9-6.7,2.7c-1.4,1.8-2.1,4.6-2.1,8.6v16.1h-2.7v-29.2h2.2l0.6,4h0.2c0.8-1.5,2-2.6,3.4-3.4
		c1.5-0.8,3.1-1.2,4.9-1.2c4.6,0,7.6,1.7,8.9,5.2h0.1c0.9-1.7,2.2-2.9,3.8-3.8c1.6-0.9,3.4-1.3,5.5-1.3c3.2,0,5.6,0.9,7.2,2.6
		c1.6,1.7,2.4,4.4,2.4,8.1v19.1H108.3z"/>
	<path d="M133.4,142.3c-4.2,0-7.6-1.3-9.9-3.9c-2.4-2.6-3.6-6.3-3.6-11c0-4.7,1.1-8.4,3.4-11.2c2.3-2.8,5.4-4.2,9.3-4.2
		c3.4,0,6.1,1.2,8.1,3.6c2,2.4,3,5.7,3,9.8v2.1h-21c0,4,1,7.1,2.8,9.2c1.8,2.1,4.5,3.2,7.9,3.2c1.7,0,3.1-0.1,4.4-0.3
		c1.3-0.2,2.9-0.7,4.8-1.5v2.4c-1.6,0.7-3.2,1.2-4.6,1.5C136.6,142.1,135.1,142.3,133.4,142.3z M132.6,114.3c-2.8,0-5.1,0.9-6.8,2.8
		c-1.7,1.9-2.7,4.5-3,8h18c0-3.4-0.7-6-2.2-7.9C137.3,115.3,135.2,114.3,132.6,114.3z"/>
	<path d="M164.5,112c1.2,0,2.6,0.1,4,0.4l-0.5,2.6c-1.2-0.3-2.5-0.5-3.8-0.5c-2.5,0-4.5,1.1-6.1,3.2c-1.6,2.1-2.4,4.8-2.4,8v16.1
		H153v-29.2h2.3l0.3,5.3h0.2c1.2-2.1,2.5-3.7,3.8-4.5C160.9,112.4,162.6,112,164.5,112z"/>
	<path d="M199.8,127.1c0,4.8-1.2,8.5-3.5,11.2c-2.3,2.7-5.5,4-9.6,4c-2.6,0-4.8-0.6-6.8-1.9s-3.4-3-4.5-5.3c-1-2.3-1.6-5-1.6-8
		c0-4.8,1.2-8.5,3.5-11.1c2.3-2.7,5.5-4,9.5-4c4,0,7.2,1.3,9.4,4C198.6,118.7,199.8,122.4,199.8,127.1z M176.7,127.1
		c0,4,0.9,7.1,2.6,9.4c1.8,2.2,4.3,3.4,7.5,3.4s5.7-1.1,7.5-3.4c1.8-2.2,2.6-5.4,2.6-9.4c0-4-0.9-7.2-2.7-9.4
		c-1.8-2.2-4.3-3.3-7.5-3.3s-5.7,1.1-7.5,3.3C177.6,119.9,176.7,123,176.7,127.1z"/>
	<path d="M235.2,112c2.1,0,3.9,0.4,5.5,1.2c1.5,0.8,2.9,2.1,4.1,3.9h0.2c-0.1-2.3-0.2-4.5-0.2-6.6V99.9h2.6v41.8h-1.7l-0.7-4.5h-0.2
		c-2.2,3.3-5.4,5-9.6,5c-4,0-7.1-1.3-9.2-3.8c-2.1-2.5-3.2-6.2-3.2-11c0-5,1.1-8.9,3.2-11.6C228.1,113.3,231.2,112,235.2,112z
		 M235.2,114.4c-3.2,0-5.6,1.1-7.2,3.4c-1.6,2.2-2.4,5.5-2.4,9.7c0,8.3,3.2,12.4,9.6,12.4c3.3,0,5.7-1,7.3-2.9
		c1.5-1.9,2.3-5.1,2.3-9.5v-0.5c0-4.5-0.8-7.8-2.3-9.7C241.1,115.4,238.6,114.4,235.2,114.4z"/>
	<path d="M270.3,142.3c-4.2,0-7.6-1.3-9.9-3.9c-2.4-2.6-3.6-6.3-3.6-11c0-4.7,1.1-8.4,3.4-11.2c2.3-2.8,5.4-4.2,9.3-4.2
		c3.4,0,6.2,1.2,8.1,3.6c2,2.4,3,5.7,3,9.8v2.1h-21c0,4,1,7.1,2.8,9.2c1.8,2.1,4.5,3.2,7.9,3.2c1.7,0,3.1-0.1,4.4-0.3
		c1.3-0.2,2.9-0.7,4.8-1.5v2.4c-1.6,0.7-3.2,1.2-4.6,1.5C273.5,142.1,272,142.3,270.3,142.3z M269.5,114.3c-2.8,0-5.1,0.9-6.8,2.8
		c-1.7,1.9-2.7,4.5-3,8h18c0-3.4-0.7-6-2.2-7.9C274.1,115.3,272.1,114.3,269.5,114.3z"/>
</g>
</svg>
