<?xml version="1.0" encoding="utf-8"?>
<!-- Generator: Adobe Illustrator 21.0.2, SVG Export Plug-In . SVG Version: 6.00 Build 0)  -->
<svg version="1.1" xmlns="http://www.w3.org/2000/svg" xmlns:xlink="http://www.w3.org/1999/xlink" x="0px" y="0px"
	 viewBox="0 0 400 400" style="enable-background:new 0 0 400 400;" xml:space="preserve">
<style type="text/css">
	.st0{opacity:0.1;fill:none;}
	.st1{fill:#FFFFFF;}
	.st2{fill:none;}
</style>
<g id="Image">
	<g>
		<image style="overflow:visible;" width="400" height="400" id="R8Ztwp" xlink:href="87B2B443.jpg" >
		</image>
	</g>
</g>
<g id="_x31_0_x2013_20_x25__Black_Tint">
	<rect class="st0" width="400" height="400"/>
</g>
<g id="Logo__x2014__FIXED">
	<g>
		<path class="st1" d="M128.1,357.5c146.2,0,226.2-121.1,226.2-226.2c0-3.4-0.1-6.9-0.2-10.3c15.5-11.2,29-25.2,39.7-41.2
			c-14.2,6.3-29.6,10.6-45.7,12.5c16.4-9.8,29-25.4,35-44c-15.4,9.1-32.4,15.7-50.5,19.3c-14.5-15.5-35.2-25.1-58-25.1
			c-43.9,0-79.5,35.6-79.5,79.5c0,6.2,0.7,12.3,2.1,18.1c-66.1-3.3-124.7-35-163.9-83.1c-6.8,11.7-10.8,25.4-10.8,40
			c0,27.6,14,51.9,35.4,66.2c-13-0.4-25.3-4-36-9.9c0,0.3,0,0.7,0,1c0,38.5,27.4,70.7,63.8,77.9c-6.7,1.8-13.7,2.8-21,2.8
			c-5.1,0-10.1-0.5-14.9-1.4c10.1,31.6,39.5,54.6,74.3,55.2c-27.2,21.3-61.5,34-98.7,34c-6.4,0-12.7-0.4-19-1.1
			C41.4,344.3,83.2,357.5,128.1,357.5"/>
		<rect x="-110" y="-110" class="st2" width="620" height="620"/>
	</g>
</g>
</svg>
